# xmcd CD database file
#
# Track frame offsets:
#	150
#	22652
#	52218
#	67744
#	84486
#	94496
#	106510
#	130224
#	152450
#	170376
#	188634
#	204000
#	226134
#
# Disc length: 3294 seconds
#
# Revision: 0
# Processed by: cddbd v1.5.1PL0 Copyright (c) Steve Scherf et al.
# Submitted via: CDex 1.51
#
DISCID=8f0cdc0d
DTITLE=Spiral Rhythm - I Am...
DYEAR=2001
DGENRE=New Age
TTITLE0=Element Chant
TTITLE1=I Am
TTITLE2=Freedom
TTITLE3=One Spirit
TTITLE4=Mother Mine
TTITLE5=She Makes A Place For Me
TTITLE6=Moon is High
TTITLE7=Why Do You Call
TTITLE8=Life Circle
TTITLE9=Drum Circle
TTITLE10=Sound of Change
TTITLE11=Om
TTITLE12=Healing Circle
EXTD=YEAR: 2001
EXTT0=
EXTT1=
EXTT2=
EXTT3=
EXTT4=
EXTT5=
EXTT6=
EXTT7=
EXTT8=
EXTT9=
EXTT10=
EXTT11=
EXTT12=
PLAYORDER=
